<mxfile host="Electron" agent="Mozilla/5.0 (Windows NT 10.0; Win64; x64) AppleWebKit/537.36 (KHTML, like Gecko) draw.io/24.7.8 Chrome/128.0.6613.36 Electron/32.0.1 Safari/537.36" version="24.7.8">
  <diagram name="Page-1" id="CiXlpzgSY__iabEz7OO2">
    <mxGraphModel dx="1290" dy="621" grid="1" gridSize="10" guides="1" tooltips="1" connect="1" arrows="1" fold="1" page="1" pageScale="1" pageWidth="827" pageHeight="1169" math="0" shadow="0">
      <root>
        <mxCell id="0" />
        <mxCell id="1" parent="0" />
        <mxCell id="8n1xCI_sMhAIh6aBDcGl-7" style="edgeStyle=orthogonalEdgeStyle;rounded=0;orthogonalLoop=1;jettySize=auto;html=1;" edge="1" parent="1" source="8n1xCI_sMhAIh6aBDcGl-5" target="8n1xCI_sMhAIh6aBDcGl-6">
          <mxGeometry relative="1" as="geometry" />
        </mxCell>
        <mxCell id="8n1xCI_sMhAIh6aBDcGl-5" value="Cliente" style="shape=umlActor;verticalLabelPosition=bottom;verticalAlign=top;html=1;outlineConnect=0;" vertex="1" parent="1">
          <mxGeometry x="50" y="315" width="30" height="60" as="geometry" />
        </mxCell>
        <mxCell id="8n1xCI_sMhAIh6aBDcGl-6" value="" style="whiteSpace=wrap;html=1;aspect=fixed;" vertex="1" parent="1">
          <mxGeometry x="230" y="120" width="450" height="450" as="geometry" />
        </mxCell>
        <mxCell id="8n1xCI_sMhAIh6aBDcGl-8" value="Onpremises" style="text;html=1;align=center;verticalAlign=middle;whiteSpace=wrap;rounded=0;" vertex="1" parent="1">
          <mxGeometry x="230" y="120" width="80" height="30" as="geometry" />
        </mxCell>
        <mxCell id="8n1xCI_sMhAIh6aBDcGl-9" value="" style="shape=cylinder3;whiteSpace=wrap;html=1;boundedLbl=1;backgroundOutline=1;size=15;" vertex="1" parent="1">
          <mxGeometry x="560" y="200" width="60" height="80" as="geometry" />
        </mxCell>
        <mxCell id="8n1xCI_sMhAIh6aBDcGl-10" value="" style="rounded=1;whiteSpace=wrap;html=1;" vertex="1" parent="1">
          <mxGeometry x="550" y="410" width="80" height="60" as="geometry" />
        </mxCell>
        <mxCell id="8n1xCI_sMhAIh6aBDcGl-12" value="busca-cep-app" style="text;html=1;align=center;verticalAlign=middle;whiteSpace=wrap;rounded=0;" vertex="1" parent="1">
          <mxGeometry x="270" y="255" width="90" height="30" as="geometry" />
        </mxCell>
        <mxCell id="8n1xCI_sMhAIh6aBDcGl-13" value="mongodb" style="text;html=1;align=center;verticalAlign=middle;whiteSpace=wrap;rounded=0;" vertex="1" parent="1">
          <mxGeometry x="560" y="170" width="60" height="30" as="geometry" />
        </mxCell>
        <mxCell id="8n1xCI_sMhAIh6aBDcGl-14" value="smocker" style="text;html=1;align=center;verticalAlign=middle;whiteSpace=wrap;rounded=0;" vertex="1" parent="1">
          <mxGeometry x="560" y="380" width="60" height="30" as="geometry" />
        </mxCell>
        <mxCell id="8n1xCI_sMhAIh6aBDcGl-16" value="" style="swimlane;startSize=0;" vertex="1" parent="1">
          <mxGeometry x="270" y="285" width="130" height="110" as="geometry" />
        </mxCell>
        <mxCell id="8n1xCI_sMhAIh6aBDcGl-20" value="mocks" style="text;html=1;align=center;verticalAlign=middle;whiteSpace=wrap;rounded=0;" vertex="1" parent="1">
          <mxGeometry x="425" y="410" width="60" height="30" as="geometry" />
        </mxCell>
        <mxCell id="8n1xCI_sMhAIh6aBDcGl-22" value="" style="endArrow=classic;startArrow=classic;html=1;rounded=0;exitX=0.5;exitY=1;exitDx=0;exitDy=0;" edge="1" parent="1" source="8n1xCI_sMhAIh6aBDcGl-16">
          <mxGeometry width="50" height="50" relative="1" as="geometry">
            <mxPoint x="390" y="350" as="sourcePoint" />
            <mxPoint x="550" y="434" as="targetPoint" />
            <Array as="points">
              <mxPoint x="360" y="434" />
            </Array>
          </mxGeometry>
        </mxCell>
        <mxCell id="8n1xCI_sMhAIh6aBDcGl-23" value="" style="endArrow=classic;startArrow=classic;html=1;rounded=0;entryX=0;entryY=0.5;entryDx=0;entryDy=0;entryPerimeter=0;exitX=1;exitY=0.5;exitDx=0;exitDy=0;" edge="1" parent="1" source="8n1xCI_sMhAIh6aBDcGl-16" target="8n1xCI_sMhAIh6aBDcGl-9">
          <mxGeometry width="50" height="50" relative="1" as="geometry">
            <mxPoint x="390" y="350" as="sourcePoint" />
            <mxPoint x="440" y="300" as="targetPoint" />
          </mxGeometry>
        </mxCell>
        <mxCell id="8n1xCI_sMhAIh6aBDcGl-24" value="mocks" style="text;html=1;align=center;verticalAlign=middle;whiteSpace=wrap;rounded=0;rotation=330;" vertex="1" parent="1">
          <mxGeometry x="450" y="255" width="60" height="30" as="geometry" />
        </mxCell>
      </root>
    </mxGraphModel>
  </diagram>
</mxfile>
